<svg xmlns="http://www.w3.org/2000/svg" version="1.1" xmlns:xlink="http://www.w3.org/1999/xlink" width="512" height="512" x="0" y="0" viewBox="0 0 100 100" style="enable-background:new 0 0 512 512" xml:space="preserve" class=""><g><g fill-rule="evenodd" clip-rule="evenodd"><path d="M50 2.5C23.78 2.5 2.5 23.78 2.5 50S23.78 97.5 50 97.5 97.5 76.22 97.5 50 76.22 2.5 50 2.5zm0 88.67C27.28 91.17 8.83 72.72 8.83 50 8.83 27.28 27.28 8.83 50 8.83S91.17 27.28 91.17 50c0 22.72-18.45 41.17-41.17 41.17z" fill="#1976d2" opacity="1" data-original="#000000" class=""></path><path d="M65.83 40.33c0 8.74-7.09 15.84-15.83 15.84s-15.83-7.1-15.83-15.84S41.26 24.5 50 24.5s15.83 7.09 15.83 15.83zM74.99 74.25C68.66 80.78 59.8 84.83 50 84.83s-18.66-4.05-24.99-10.58c-1-1.02-1.18-2.58-.46-3.81C28.4 63.9 35.52 59.5 43.67 59.5h12.66c8.15 0 15.27 4.4 19.12 10.94.72 1.23.54 2.79-.46 3.81z" fill="#1976d2" opacity="1" data-original="#000000" class=""></path></g></g></svg>